,
Brought to you by  http://www.scenetime.com/signup.php
 
 Hottest scene tracker on the net !!!   
 
No fake torrents from scenebalance 
shame on those who comment fake before downloading my torrents

    seed back for speed


 



...................................NFO:.................................................General 
Complete name : Dead In 3 Days 2006 DVDRip Xvid AC3-Freebee.avi 
Format : AVI 
Format/Info : Audio Video Interleave 
File size : 1.40 GiB 
Duration : 1h 37mn 
Overall bit rate : 2 063 Kbps 

Video 
ID : 0 
Format : MPEG-4 Visual 
Format profile : Advanced Simple@L5 
Format settings, BVOP : 2 
Format settings, QPel : No 
Format settings, GMC : No warppoints 
Format settings, Matrix : Default (MPEG) 
Codec ID : XVID 
Codec ID/Hint : XviD 
Duration : 1h 37mn 
Bit rate : 1 606 Kbps 
Width : 720 pixels 
Height : 384 pixels 
Display aspect ratio : 1.875 
Frame rate : 23.976 fps 
Color space : YUV 
Chroma subsampling : 4:2:0 
Bit depth : 8 bits 
Scan type : Progressive 
Compression mode : Lossy 
Bits/(Pixel*Frame) : 0.242 
Stream size : 1.09 GiB (78%) 

Audio 
ID : 1 
Format : AC-3 
Format/Info : Audio Coding 3 
Mode extension : CM (complete main) 
Codec ID : 2000 
Duration : 1h 37mn 
Bit rate mode : Constant 
Bit rate : 448 Kbps 
Channel(s) : 6 channels 
Channel positions : Front: L C R, Side: L R, LFE 
Sampling rate : 48.0 KHz 
Bit depth : 16 bits 
Compression mode : Lossy 
Delay relative to video : 1s 0ms 
Stream size : 312 MiB (22%) 
Alignment : Split accross interleaves 
Interleave, duration : 42 ms (1.00 video frame) 
Interleave, preload duration : 500 ms 


   
              Language.............: English, German
              Subtitle.............: English, Spanish
              Imdb-Rating..........: 5.3/10
              Imdb.................: http://www.imdb.com/title/tt0808315/
              Video-Source.........: DVD
              Audio-Source.........: DVD
              Encoder..............: Freebee269
              Plot.................: In Ebensse, the teenagers Nina, her
 boyfriend Martin, Clemens, his girlfriend Alex and Mona are best friends
 since their childhood. On their high-school graduation day, they all
 receive the same message in the cellular: "In three days you will be
 dead!", but they believe is a stupid joke from their weird schoolmate
 Patrick. However, when Martin is found dead in the lake Traunsee, the
 group realizes that it is not a prank. When Nina is attacked and Patrick
 is killed trying to save her, they recall a tragic incident from their
 childhood.

              Director.............: Andreas Prochaska
              Writer...............: Thomas Baum , Andreas Prochaska
              Stars................: Sabrina Reiter, Julia Rosa Stckl
 and Michael Steinocher
   
                    
                    Sample Included
                    


                    
                    Greets: All P2P Groups!
                    

 
                                          
                           Respects                  
                    
                     SANTi, TOXiCiNK, LKRG 
                    NPW, FLAWL3SS, BDK, CM8
                      IMAGiNE, ViSiON, Rx  
                          Legion, *THC*